<svg width="19" height="24" viewBox="0 0 19 24" fill="none" xmlns="http://www.w3.org/2000/svg">
<path d="M0.5 20.1666V17.8333H2.75V9.66665C2.75 8.05276 3.21875 6.62359 4.15625 5.37915C5.09375 4.11526 6.3125 3.28887 7.8125 2.89998V2.08331C7.8125 1.5972 7.97188 1.18887 8.29063 0.858312C8.62813 0.508313 9.03125 0.333313 9.5 0.333313C9.96875 0.333313 10.3625 0.508313 10.6813 0.858312C11.0188 1.18887 11.1875 1.5972 11.1875 2.08331V2.89998C12.6875 3.28887 13.9062 4.11526 14.8438 5.37915C15.7813 6.62359 16.25 8.05276 16.25 9.66665V17.8333H18.5V20.1666H0.5ZM9.5 23.6666C8.88125 23.6666 8.34688 23.443 7.89688 22.9958C7.46563 22.5291 7.25 21.975 7.25 21.3333H11.75C11.75 21.975 11.525 22.5291 11.075 22.9958C10.6437 23.443 10.1188 23.6666 9.5 23.6666ZM5 17.8333H14V9.66665C14 8.38331 13.5594 7.2847 12.6781 6.37081C11.7969 5.45692 10.7375 4.99998 9.5 4.99998C8.2625 4.99998 7.20313 5.45692 6.32188 6.37081C5.44063 7.2847 5 8.38331 5 9.66665V17.8333Z" fill="white"/>
</svg>
