<svg width="20" height="17" viewBox="0 0 20 17" fill="none" xmlns="http://www.w3.org/2000/svg">
<path d="M2 16.8334C1.45 16.8334 0.979333 16.6295 0.588 16.2219C0.196667 15.8143 0.000666667 15.3236 0 14.75V2.25002C0 1.6771 0.196 1.18683 0.588 0.779187C0.98 0.371548 1.45067 0.167381 2 0.166687H8L10 2.25002H18C18.55 2.25002 19.021 2.45419 19.413 2.86252C19.805 3.27085 20.0007 3.76113 20 4.33335V14.75C20 15.3229 19.8043 15.8136 19.413 16.2219C19.0217 16.6302 18.5507 16.834 18 16.8334H2ZM2 14.75H18V4.33335H9.175L7.175 2.25002H2V14.75Z" fill="white"/>
</svg>
