<svg width="21" height="22" viewBox="0 0 21 22" fill="none" xmlns="http://www.w3.org/2000/svg">
<path d="M14.9292 1.33019C14.9915 1.13447 14.9742 0.922076 14.8811 0.738986C14.788 0.555896 14.6265 0.416844 14.4317 0.351929C14.2368 0.287015 14.0242 0.301462 13.8399 0.392142C13.6556 0.482823 13.5144 0.642441 13.4469 0.836444L12.6656 3.17915C12.6033 3.37488 12.6206 3.58727 12.7137 3.77036C12.8068 3.95345 12.9683 4.0925 13.1632 4.15742C13.358 4.22233 13.5707 4.20789 13.755 4.1172C13.9393 4.02652 14.0804 3.86691 14.1479 3.6729L14.9292 1.33019ZM19.6875 1.31249C19.8338 1.45897 19.916 1.65754 19.916 1.86457C19.916 2.0716 19.8338 2.27017 19.6875 2.41665L17.0834 5.02082C17.0118 5.09758 16.9256 5.15914 16.8297 5.20184C16.7339 5.24454 16.6305 5.2675 16.5256 5.26935C16.4207 5.2712 16.3165 5.25191 16.2192 5.21261C16.1219 5.17332 16.0335 5.11484 15.9594 5.04065C15.8852 4.96646 15.8267 4.8781 15.7874 4.78082C15.7481 4.68354 15.7288 4.57934 15.7307 4.47444C15.7325 4.36954 15.7555 4.26609 15.7982 4.17026C15.8409 4.07443 15.9024 3.98818 15.9792 3.91665L18.5834 1.31249C18.7298 1.16618 18.9284 1.08401 19.1354 1.08401C19.3425 1.08401 19.541 1.16618 19.6875 1.31249ZM10.4063 2.89582C10.1376 2.60797 9.80275 2.38998 9.43081 2.26074C9.05886 2.13149 8.66101 2.09488 8.27172 2.15408C7.88243 2.21329 7.51345 2.36652 7.19674 2.6005C6.88003 2.83448 6.62516 3.14215 6.45419 3.49686L0.310435 16.25C0.137836 16.6087 0.0838675 17.013 0.156342 17.4044C0.228817 17.7958 0.423974 18.154 0.71356 18.4271L2.21252 19.8417C2.48118 20.0949 2.81864 20.2633 3.18259 20.3255C3.54654 20.3878 3.92077 20.3412 4.25835 20.1917L5.73439 19.5375C6.1898 20.5356 7.02048 21.3138 8.04613 21.7033C9.07179 22.0927 10.2097 22.0619 11.2127 21.6175C12.2158 21.1732 13.0032 20.3511 13.4039 19.3298C13.8046 18.3085 13.7864 17.1704 13.3531 16.1625L16.9156 14.5833C17.2688 14.4269 17.5793 14.1882 17.8215 13.8873C18.0636 13.5864 18.2302 13.232 18.3075 12.8536C18.3848 12.4752 18.3704 12.0838 18.2657 11.712C18.1609 11.3403 17.9687 10.999 17.7052 10.7167L10.4063 2.89582ZM11.924 16.7937C12.1769 17.4203 12.1765 18.1206 11.9227 18.7468C11.6689 19.373 11.1817 19.876 10.564 20.1497C9.94619 20.4234 9.24624 20.4462 8.61194 20.2134C7.97765 19.9806 7.45866 19.5104 7.1646 18.9021L11.924 16.7937ZM16.7917 7.59269C16.7917 7.38549 16.874 7.18678 17.0205 7.04027C17.167 6.89375 17.3657 6.81144 17.5729 6.81144H19.6563C19.8635 6.81144 20.0622 6.89375 20.2087 7.04027C20.3552 7.18678 20.4375 7.38549 20.4375 7.59269C20.4375 7.79989 20.3552 7.99861 20.2087 8.14512C20.0622 8.29163 19.8635 8.37394 19.6563 8.37394H17.5729C17.3657 8.37394 17.167 8.29163 17.0205 8.14512C16.874 7.99861 16.7917 7.79989 16.7917 7.59269Z" fill="white"/>
</svg>
