<svg width="31" height="39" viewBox="0 0 31 39" fill="none" xmlns="http://www.w3.org/2000/svg">
<path d="M30.3181 13.0988C30.2291 12.8953 30.1047 12.7093 29.9506 12.5494L18.7006 1.29937C18.5407 1.14531 18.3547 1.02088 18.1513 0.931875C18.095 0.905625 18.035 0.890625 17.975 0.87C17.8181 0.816806 17.6548 0.784651 17.4894 0.774375C17.45 0.770625 17.4144 0.75 17.375 0.75H4.25C2.18188 0.75 0.5 2.43187 0.5 4.5V34.5C0.5 36.5681 2.18188 38.25 4.25 38.25H26.75C28.8181 38.25 30.5 36.5681 30.5 34.5V13.875C30.5 13.8356 30.4794 13.8 30.4756 13.7587C30.4654 13.5934 30.4332 13.4301 30.38 13.2731C30.3625 13.2131 30.3419 13.155 30.3181 13.0988ZM24.0988 12H19.25V7.15125L24.0988 12ZM4.25 34.5V4.5H15.5V13.875C15.5 14.3723 15.6975 14.8492 16.0492 15.2008C16.4008 15.5525 16.8777 15.75 17.375 15.75H26.75L26.7538 34.5H4.25Z" fill="#B3B4B9"/>
</svg>
