<svg width="43" height="33" viewBox="0 0 43 33" fill="none" xmlns="http://www.w3.org/2000/svg">
<path d="M14.4609 20.4637C18.487 20.4637 21.9539 21.1683 24.4562 22.8542C27.048 24.6016 28.4404 27.2941 28.4404 30.8085C28.4179 31.164 28.2608 31.4976 28.0011 31.7413C27.7414 31.9851 27.3986 32.1208 27.0424 32.1208C26.6862 32.1208 26.3434 31.9851 26.0837 31.7413C25.8241 31.4976 25.667 31.164 25.6445 30.8085C25.6445 28.1301 24.6436 26.3463 22.8961 25.1692C21.0564 23.9334 18.2354 23.2596 14.4609 23.2596C10.6865 23.2596 7.8626 23.9334 6.0257 25.172C4.27827 26.3491 3.27734 28.1328 3.27734 30.8113C3.25485 31.1668 3.09778 31.5003 2.83808 31.7441C2.57839 31.9879 2.23558 32.1236 1.87939 32.1236C1.5232 32.1236 1.1804 31.9879 0.920702 31.7441C0.661009 31.5003 0.503939 31.1668 0.481445 30.8113C0.481445 27.2941 1.871 24.6016 4.4628 22.8542C6.96512 21.1683 10.4348 20.4637 14.4609 20.4637ZM28.3705 20.4637C32.3938 20.4637 35.8635 21.1683 38.3658 22.8542C40.9576 24.6016 42.35 27.2941 42.35 30.8113C42.35 31.1821 42.2027 31.5376 41.9405 31.7998C41.6783 32.062 41.3228 32.2093 40.952 32.2093C40.5812 32.2093 40.2257 32.062 39.9635 31.7998C39.7013 31.5376 39.5541 31.1821 39.5541 30.8113C39.5541 28.1328 38.5531 26.3491 36.8029 25.172C35.3546 24.1962 33.2996 23.5783 30.6463 23.3547C29.9854 22.2751 29.1654 21.3014 28.2139 20.4665L28.3705 20.4637ZM14.4609 0.752665C16.7583 0.810558 18.9421 1.76385 20.5465 3.40918C22.1509 5.05452 23.0488 7.26164 23.0488 9.55973C23.0488 11.8578 22.1509 14.0649 20.5465 15.7103C18.9421 17.3556 16.7583 18.3089 14.4609 18.3668C12.1251 18.3668 9.88502 17.4389 8.23338 15.7873C6.58173 14.1356 5.65385 11.8955 5.65385 9.55973C5.65385 7.22395 6.58173 4.98384 8.23338 3.33219C9.88502 1.68055 12.1251 0.752665 14.4609 0.752665ZM28.3705 0.752665C30.7063 0.752665 32.9464 1.68055 34.598 3.33219C36.2497 4.98384 37.1776 7.22395 37.1776 9.55973C37.1776 11.8955 36.2497 14.1356 34.598 15.7873C32.9464 17.4389 30.7063 18.3668 28.3705 18.3668C26.9054 18.3668 25.5299 18.0033 24.3164 17.3715C24.9015 16.6357 25.4023 15.8367 25.8094 14.9894C26.7257 15.4228 27.7366 15.6175 28.7482 15.5554C29.7599 15.4933 30.7394 15.1764 31.5958 14.6342C32.4521 14.092 33.1574 13.3421 33.6462 12.4541C34.1349 11.5662 34.3912 10.5691 34.3912 9.55553C34.3912 8.54198 34.1349 7.54487 33.6462 6.65694C33.1574 5.769 32.4521 5.01906 31.5958 4.47684C30.7394 3.93463 29.7599 3.61774 28.7482 3.55565C27.7366 3.49357 26.7257 3.68829 25.8094 4.12172C25.4011 3.27621 24.8994 2.47908 24.3136 1.74521C25.564 1.08907 26.9557 0.74834 28.3677 0.752665M14.4609 3.54856C12.8984 3.59622 11.4158 4.25043 10.3274 5.37254C9.23901 6.49465 8.63031 7.99648 8.63031 9.55973C8.63031 11.123 9.23901 12.6248 10.3274 13.7469C11.4158 14.869 12.8984 15.5232 14.4609 15.5709C16.0552 15.5709 17.5841 14.9376 18.7115 13.8103C19.8388 12.683 20.4721 11.154 20.4721 9.55973C20.4721 7.96547 19.8388 6.4365 18.7115 5.30919C17.5841 4.18188 16.0552 3.54856 14.4609 3.54856Z" fill="#B3B4B9"/>
</svg>
