<svg width="17" height="16" viewBox="0 0 17 16" fill="none" xmlns="http://www.w3.org/2000/svg">
<path d="M8.5 6.22222C8.93409 6.22222 9.36393 6.14175 9.76498 5.9854C10.166 5.82906 10.5304 5.59989 10.8374 5.311C11.1443 5.02211 11.3878 4.67914 11.5539 4.30168C11.7201 3.92422 11.8056 3.51967 11.8056 3.11111C11.8056 2.70255 11.7201 2.298 11.5539 1.92054C11.3878 1.54308 11.1443 1.20012 10.8374 0.911223C10.5304 0.62233 10.166 0.393167 9.76498 0.236819C9.36393 0.0804712 8.93409 -8.60969e-09 8.5 0C7.62331 1.73881e-08 6.78253 0.327777 6.16262 0.911223C5.54271 1.49467 5.19445 2.28599 5.19445 3.11111C5.19445 3.93623 5.54271 4.72755 6.16262 5.311C6.78253 5.89444 7.62331 6.22222 8.5 6.22222ZM0 15.4667V16H17V15.4667C17 13.4756 17 12.48 16.5882 11.7191C16.226 11.0501 15.6481 10.5062 14.9373 10.1653C14.1289 9.77778 13.0711 9.77778 10.9556 9.77778H6.04445C3.92889 9.77778 2.87111 9.77778 2.06267 10.1653C1.35186 10.5062 0.773961 11.0501 0.411778 11.7191C1.04297e-07 12.48 0 13.4756 0 15.4667Z" fill="black"/>
</svg>
