<svg width="36" height="35" viewBox="0 0 36 35" fill="none" xmlns="http://www.w3.org/2000/svg">
<path d="M18 13.8553C18.8682 13.8553 19.7279 13.6943 20.53 13.3816C21.3321 13.0689 22.0609 12.6106 22.6748 12.0328C23.2887 11.455 23.7756 10.7691 24.1079 10.0142C24.4401 9.25928 24.6111 8.45016 24.6111 7.63305C24.6111 6.81594 24.4401 6.00682 24.1079 5.25191C23.7756 4.49699 23.2887 3.81106 22.6748 3.23327C22.0609 2.65549 21.3321 2.19716 20.53 1.88447C19.7279 1.57177 18.8682 1.41083 18 1.41083C16.2466 1.41083 14.5651 2.06638 13.3252 3.23327C12.0854 4.40017 11.3889 5.98281 11.3889 7.63305C11.3889 9.28329 12.0854 10.8659 13.3252 12.0328C14.5651 13.1997 16.2466 13.8553 18 13.8553ZM1 32.3442V33.4108H35V32.3442C35 28.3619 35 26.3708 34.1764 24.849C33.4521 23.5111 32.2963 22.4232 30.8747 21.7415C29.2578 20.9664 27.1422 20.9664 22.9111 20.9664H13.0889C8.85778 20.9664 6.74222 20.9664 5.12533 21.7415C3.70373 22.4232 2.54792 23.5111 1.82356 24.849C1 26.3708 1 28.3619 1 32.3442Z" stroke="#6387FF" stroke-width="2" stroke-linecap="round" stroke-linejoin="round"/>
</svg>
